<?xml version="1.0" encoding="UTF-8"?>
<svg id="Layer_1" data-name="Layer 1" xmlns="http://www.w3.org/2000/svg" viewBox="0 0 516.8 516.8">
  <defs>
    <style>
      .cls-1 {
        font-family: AirbnbCerealWMd, AirbnbCereal_W_Md;
        font-size: 104px;
      }
    </style>
  </defs>
  <text class="cls-1" transform="translate(186.78 102.2) rotate(-15.26)"><tspan x="0" y="0">L</tspan></text>
  <text class="cls-1" transform="translate(234.05 87.97) rotate(1.94)"><tspan x="0" y="0">e</tspan></text>
  <text class="cls-1" transform="translate(289.31 90.23) rotate(17.84)"><tspan x="0" y="0">t</tspan></text>
  <text class="cls-1" transform="translate(328.18 103.37) rotate(28.49)"><tspan x="0" y="0">’</tspan></text>
  <text class="cls-1" transform="translate(346.35 111.35) rotate(39.28)"><tspan x="0" y="0">s</tspan></text>
  <text class="cls-1" transform="translate(381.65 141.5) rotate(50.22)"><tspan x="0" y="0"> </tspan></text>
  <text class="cls-1" transform="translate(396.49 152.94) rotate(65.27)"><tspan x="0" y="0">C</tspan></text>
  <text class="cls-1" transform="translate(425.83 216.82) rotate(86.77)"><tspan x="0" y="0">o</tspan></text>
  <text class="cls-1" transform="translate(429.83 275.27) rotate(105.8)"><tspan x="0" y="0">n</tspan></text>
  <text class="cls-1" transform="translate(415.44 329.23) rotate(124.54)"><tspan x="0" y="0">n</tspan></text>
  <text class="cls-1" transform="translate(384.37 375.75) rotate(143.04)"><tspan x="0" y="0">e</tspan></text>
  <text class="cls-1" transform="translate(340.14 409.78) rotate(161.4)"><tspan x="0" y="0">c</tspan></text>
  <text class="cls-1" transform="translate(289.52 426.51) rotate(177.01)"><tspan x="0" y="0">t</tspan></text>
  <text class="cls-1" transform="translate(248.34 427.96) rotate(-172.94)"><tspan x="0" y="0"> </tspan></text>
  <text class="cls-1" transform="translate(228.58 425.8) rotate(-165.48)"><tspan x="0" y="0">·</tspan></text>
  <text class="cls-1" transform="translate(205.2 419.76) rotate(-158)"><tspan x="0" y="0"> </tspan></text>
  <text class="cls-1" transform="translate(186.75 416.68) rotate(-142.96)"><tspan x="0" y="0">H</tspan></text>
  <text class="cls-1" transform="translate(131.63 371.58) rotate(-127.61)"><tspan x="0" y="0">i</tspan></text>
  <text class="cls-1" transform="translate(117.52 354.8) rotate(-117.64)"><tspan x="0" y="0">r</tspan></text>
  <text class="cls-1" transform="translate(99.64 325.16) rotate(-102.65)"><tspan x="0" y="0">e</tspan></text>
  <text class="cls-1" transform="translate(89.09 269.68) rotate(-90.93)"><tspan x="0" y="0"> </tspan></text>
  <text class="cls-1" transform="translate(83.42 251.58) rotate(-73.28)"><tspan x="0" y="0">M</tspan></text>
  <text class="cls-1" transform="translate(108.24 174.13) rotate(-50.56)"><tspan x="0" y="0">e</tspan></text>
  <text class="cls-1" transform="translate(145.41 131.57) rotate(-38)"><tspan x="0" y="0"> </tspan></text>
  <text class="cls-1" transform="translate(160.9 119.11) rotate(-30.59)"><tspan x="0" y="0">·</tspan></text>
</svg>