<?xml version="1.0" encoding="UTF-8"?>
<svg id="Layer_1" data-name="Layer 1" xmlns="http://www.w3.org/2000/svg" viewBox="0 0 455.87 477.88">
  <path d="m146.61,68.89l5.49-12.33c4.84,3.72,9.4,5.02,14.02,3.72,6-1.7,8.13-6.19,6.11-13.3l-8.7-30.76-22.72,6.43-3.4-12.01L175.02,0l11.86,41.94c4.52,15.98-1.3,26.11-16.54,30.42-8.68,2.46-17.29,1.3-23.73-3.47Zm106.98-26.38l-39.06-1.01c1.27,6.47,6.64,10.54,14.51,10.75,5.47.14,9.45-1.39,13.08-4.65l7.74,8.84c-4.94,5.35-12.21,8.04-21.52,7.8-17.85-.46-29.17-11.99-28.77-27.35.4-15.45,12.49-26.28,28.23-25.87,15.16.39,26.61,10.87,26.18,27.47-.03,1.15-.26,2.78-.39,4.02Zm-39.02-9.75l25.43.66c-.89-6.55-5.67-10.9-12.39-11.08-6.81-.18-11.82,3.82-13.04,10.42Zm129.22,44.73c-7.98,14.12-22.86,17.62-35.48,10.49-5.6-3.17-9.2-7.52-10.47-13.09l-11.86,20.98-13.04-7.37,34.58-61.17,12.45,7.04-2.93,5.18c5.48-2.09,11.41-1.27,17.43,2.13,12.62,7.13,17.3,21.69,9.31,35.81Zm-13.2-7.46c4.39-7.77,2.11-15.24-4.41-18.92-6.52-3.69-14.1-1.79-18.49,5.98-4.39,7.77-2.11,15.24,4.41,18.92,6.52,3.69,14.09,1.79,18.49-5.98Zm55.32,48.19l-22.07,19.54-9.29-10.5,4.82-4.26c-5.37,1.03-10.8-1.34-15.83-7.02-8.02-9.06-7.76-18.9-1.08-24.82,6.83-6.05,15.84-5.43,26.28,6.36l7.89,8.91c4.82-4.26,5.07-9.62-.27-15.66-3.63-4.1-8.75-7.13-13.46-7.96l4.27-10.96c6.77,1.57,13.96,6.36,19.44,12.54,10.44,11.79,11.02,23.45-.7,33.83Zm-19.78-2.49l3.95-3.5-6.81-7.69c-4.65-5.25-8.05-5.18-10.64-2.89-2.8,2.48-2.57,6.51.93,10.46,3.31,3.74,7.9,5.45,12.57,3.62Zm63.02,36.26l-12.42,6.07c-.46-1.16-.8-2.07-1.3-3.1-3.62-7.42-10.08-10.35-18.96-6.02l-21.91,10.7-6.57-13.46,46.41-22.67,6.28,12.85-6.12,2.99c6.09,1.09,11.11,5.47,14.61,12.63Zm22.77,10.15l3.94,14.45-68.72,18.74-3.94-14.45,68.72-18.74Zm-38.54,92.51l-1.03-39.06c-6.39,1.61-10.18,7.18-9.97,15.05.14,5.47,1.88,9.36,5.33,12.82l-8.43,8.19c-5.6-4.65-8.67-11.78-8.91-21.08-.47-17.85,10.45-29.76,25.8-30.16,15.45-.41,26.89,11.1,27.31,26.84.4,15.16-9.46,27.14-26.06,27.58-1.15.03-2.79-.12-4.04-.18Zm7.7-39.48l.67,25.43c6.5-1.23,10.59-6.23,10.41-12.95-.18-6.81-4.44-11.6-11.08-12.48Zm-29.41,123.61l-26.63-12.62,6-12.67,5.81,2.76c-3.06-4.53-3.01-10.46.24-17.31,5.18-10.93,14.34-14.56,22.41-10.73,8.24,3.91,11.21,12.43,4.47,26.66l-5.1,10.76c5.81,2.76,10.84.89,14.29-6.4,2.34-4.95,3.12-10.84,2.04-15.5l11.76-.38c1.22,6.84-.37,15.34-3.9,22.8-6.74,14.23-17.24,19.34-31.38,12.64Zm-5.47-19.17l4.77,2.26,4.4-9.28c3-6.33,1.61-9.44-1.52-10.92-3.38-1.6-7,.19-9.26,4.96-2.14,4.51-1.91,9.4,1.6,12.98Zm-25.4,87.07l-36.76-36.28,9.98-10.11,4.37,4.32c-.45-5.97,1.89-11.76,6.34-16.27,9.1-9.22,20.71-10.59,32.05.61l20.77,20.5-10.52,10.66-19.2-18.95c-6.15-6.07-11.58-6.03-16.23-1.32-4.86,4.92-5.22,11.57,1.54,18.25l18.18,17.94-10.52,10.66Zm-38.12-29.85l.52,11.84c-5.46-.52-12.61.91-18.23,3.83-6.14,3.18-7.6,5.99-6.27,8.55,3.89,7.5,27.61-14.53,37.11,3.79,4.51,8.69-.15,18.89-13.53,25.83-6.31,3.27-14.05,5.45-19.72,5.14l-.47-11.76c5.84.21,10.8-1.28,14.98-3.44,5.97-3.09,7.55-6.29,6.31-8.68-4.07-7.84-27.83,14.11-37.2-3.96-4.42-8.52.37-18.68,14.09-25.8,7.75-4.02,16.7-5.96,22.42-5.35Zm-42.73,22.01l-2.73,11.54c-5.11-1.99-12.38-2.55-18.59-1.28-6.77,1.39-8.94,3.7-8.36,6.52,1.7,8.28,30.52-6.46,34.67,13.76,1.97,9.59-5.29,18.14-20.06,21.17-6.96,1.43-15,1.41-20.37-.42l2.75-11.44c5.56,1.8,10.74,1.71,15.35.77,6.58-1.35,8.98-4,8.44-6.63-1.78-8.65-30.62,5.99-34.71-13.95-1.93-9.4,5.45-17.88,20.59-20.98,8.56-1.76,17.69-1.18,23.03.96Zm-52.01,70.83c-.08,4.71-3.88,8.29-9.45,8.2-5.57-.09-9.25-3.61-9.18-8.21.08-4.99,3.88-8.58,9.45-8.49s9.25,3.8,9.18,8.5Zm-1.57-15.58l-14.98-.24.84-51.64,14.98.24-.84,51.64Zm-85.52-11.92l6.92-16.36-28.64-12.13,4.87-11.49,28.64,12.13,9.54-22.54,14.32,6.06-26.2,61.89-46.77-19.8,4.87-11.49,32.45,13.74Zm-71.57-46.96l8.6-10.82c.92.85,1.61,1.53,2.51,2.24,6.46,5.14,13.55,5.01,19.71-2.73l15.18-19.08,11.72,9.32-32.15,40.42-11.19-8.9,4.24-5.34c-5.96,1.64-12.38-.16-18.62-5.12Zm-21.72-63.26l23.75-17.44,8.29,11.3-5.18,3.8c5.44-.54,10.63,2.32,15.12,8.43,7.16,9.75,6,19.53-1.19,24.81-7.35,5.4-16.26,3.96-25.58-8.73l-7.04-9.6c-5.18,3.81-5.93,9.12-1.16,15.62,3.24,4.41,8.06,7.9,12.67,9.15l-5.25,10.53c-6.6-2.18-13.32-7.61-18.21-14.26-9.32-12.69-8.83-24.36,3.78-33.62Zm19.46,4.29l-4.26,3.12,6.08,8.28c4.15,5.65,7.54,5.89,10.33,3.85,3.02-2.21,3.15-6.25.03-10.5-2.95-4.02-7.37-6.14-12.18-4.75Zm-43.61-70.94l28.29-8.59,4.35,14.33-26.09,7.92c-7.99,2.43-10.55,7.21-8.63,13.55,2.09,6.89,7.82,10.57,16.92,7.81l24.43-7.41,4.35,14.33-49.42,15-4.15-13.69,5.79-1.76c-5.4-2.58-9.45-7.67-11.48-14.37-3.54-11.67.58-22.55,15.65-27.12Zm2.07-14.85c-15.54-.6-26.11-13.02-25.46-29.81.42-10.84,5.45-19.2,14.04-22.61l5.79,11.85c-5,2.59-7.37,6.63-7.55,11.33-.29,7.58,4.75,13.73,13.77,14.08s14.52-5.4,14.82-12.97c.18-4.7-1.77-8.91-6.65-11.88l6.78-11.36c8.11,4.06,12.57,12.78,12.15,23.62-.65,16.79-12.14,28.35-27.69,27.75Zm17.18-107.66l27.67,10.14-4.82,13.16-6.04-2.21c3.46,4.23,3.95,10.14,1.34,17.26-4.16,11.36-12.95,15.81-21.33,12.73-8.56-3.14-12.3-11.35-6.88-26.14l4.09-11.18c-6.04-2.21-10.88.1-13.65,7.68-1.88,5.14-2.12,11.08-.61,15.62l-11.67,1.45c-1.84-6.71-1.04-15.31,1.8-23.06,5.42-14.78,15.4-20.83,30.09-15.45Zm7.2,18.58l-4.96-1.82-3.53,9.64c-2.41,6.58-.74,9.54,2.51,10.73,3.52,1.29,6.95-.83,8.76-5.79,1.72-4.69,1.04-9.54-2.78-12.78Zm-30.36-52.13c-3.91-2.61-4.87-7.75-1.77-12.38,3.09-4.63,8.05-5.82,11.88-3.26,4.15,2.77,5.1,7.91,2.01,12.54-3.09,4.63-8.21,5.72-12.12,3.1Zm13.95,7.12l8.32-12.45,42.95,28.69-8.32,12.45-42.95-28.69Zm50.15,7.45l-3.88-11.2c5.38-1.06,11.82-4.48,16.38-8.88,4.97-4.8,5.57-7.92,3.57-9.99-5.87-6.08-22.31,21.81-36.65,6.97-6.8-7.04-5.25-18.15,5.59-28.62,5.11-4.94,11.91-9.23,17.43-10.56l3.81,11.13c-5.66,1.46-9.99,4.31-13.37,7.58-4.83,4.67-5.44,8.19-3.57,10.12,6.14,6.35,22.64-21.47,36.78-6.83,6.67,6.9,4.98,18.01-6.13,28.75-6.28,6.07-14.3,10.48-19.96,11.54Zm5.46-87.31l15.16-9.44,20.67,38.81-10.1,6.29-25.73-35.66Zm31.08,50.43c-2.59-4.16-1.26-9.28,3.3-12.13s9.75-1.78,12.34,2.38c2.54,4.07,1.36,9.45-3.2,12.29-4.56,2.84-9.9,1.53-12.44-2.54Z"/>
</svg>